<?xml version="1.0" encoding="UTF-8"?>
<!DOCTYPE svg PUBLIC "-//W3C//DTD SVG 1.1//EN" "http://www.w3.org/Graphics/SVG/1.1/DTD/svg11.dtd">
<!-- Creator: CorelDRAW -->
<svg xmlns="http://www.w3.org/2000/svg" xml:space="preserve" width="6.82666in" height="6.82666in" style="shape-rendering:geometricPrecision; text-rendering:geometricPrecision; image-rendering:optimizeQuality; fill-rule:evenodd; clip-rule:evenodd"
viewBox="0 0 6.82666 6.82666"
 xmlns:xlink="http://www.w3.org/1999/xlink">
 <defs>
  <style type="text/css">
   <![CDATA[
    .fil1 {fill:#FEFEFE;fill-rule:nonzero}
    .fil0 {fill:url(#id0)}
   ]]>
  </style>
  <linearGradient id="id0" gradientUnits="userSpaceOnUse" x1="1.68784" y1="0.424697" x2="5.13882" y2="6.40196">
   <stop offset="0" style="stop-color:#444FF5"/>
   <stop offset="0.490196" style="stop-color:#21BFDB"/>
   <stop offset="1" style="stop-color:#1DABB6"/>
  </linearGradient>
 </defs>
 <g id="Layer_x0020_1">
  <metadata id="CorelCorpID_0Corel-Layer"/>
  <path class="fil0" d="M6.36936 1.70667c0.942567,1.63257 0.383209,3.72013 -1.24937,4.6627 -1.63257,0.942567 -3.72013,0.383209 -4.6627,-1.24937 -0.942567,-1.63257 -0.383209,-3.72013 1.24937,-4.6627 1.63257,-0.942567 3.72013,-0.383209 4.6627,1.24937z"/>
  <path class="fil1" d="M3.41333 4.67776l0.000204724 0 0.494028 0c0.0216417,-0.177673 0.0794803,-0.333398 0.157299,-0.478555 0.30939,-0.458441 0.773697,-0.98874 0.773697,-1.54835 0,-0.19348 -0.038315,-0.37761 -0.10774,-0.54522 -0.0720276,-0.173898 -0.177945,-0.330748 -0.309626,-0.462433 -0.131685,-0.131685 -0.288539,-0.237602 -0.462437,-0.309626 -0.167606,-0.0694252 -0.35174,-0.107744 -0.54522,-0.107744l-0.000204724 0 -0.000204724 0c-0.19348,0 -0.377614,0.0383189 -0.54522,0.107744 -0.173898,0.0720236 -0.330752,0.177941 -0.462437,0.309626 -0.131681,0.131685 -0.237598,0.288535 -0.309626,0.462433 -0.0694252,0.16761 -0.10774,0.35174 -0.10774,0.54522 0,0.55961 0.464307,1.08991 0.773697,1.54835 0.0778189,0.145157 0.135657,0.300882 0.157299,0.478555l0.494028 0 0.000204724 0zm0 -3.59776l0.000204724 0c0.212315,0 0.415146,0.0423701 0.600476,0.119134 0.192697,0.079815 0.365768,0.196437 0.510287,0.340961 0.144524,0.144524 0.26115,0.317591 0.340961,0.510291 0.0767638,0.185327 0.119134,0.388157 0.119134,0.600472 0,0.517807 -0.251657,0.85548 -0.494122,1.17817 -0.00114567,0.00184252 -0.00238189,0.00364567 -0.00370472,0.00540551l-1.1811e-005 1.5748e-005c-0.00128346,0.00170079 -0.00264567,0.00336614 -0.00409843,0.00497638 -0.106146,0.141268 -0.210031,0.280043 -0.289425,0.428142 -0.0779803,0.145465 -0.133543,0.302264 -0.14635,0.484138 -0.000551181,0.0397992 -0.0329764,0.0718937 -0.0729055,0.0718937l-0.56024 0 -0.000204724 0 -0.000204724 0 -0.56024 0c-0.0399291,0 -0.0723543,-0.0320945 -0.0729055,-0.0718937 -0.0128071,-0.181874 -0.0683701,-0.338673 -0.14635,-0.484138 -0.0793937,-0.148098 -0.18328,-0.286874 -0.289425,-0.428142 -0.00145276,-0.00161024 -0.00281496,-0.00327559 -0.00409843,-0.00497638l-1.1811e-005 -1.5748e-005c-0.00132283,-0.00175984 -0.00255906,-0.00356299 -0.00370472,-0.00540551 -0.242465,-0.322689 -0.494122,-0.660362 -0.494122,-1.17817 0,-0.212315 0.0423701,-0.415146 0.119134,-0.600472 0.079811,-0.192701 0.196437,-0.365768 0.340961,-0.510291 0.14452,-0.144524 0.317591,-0.261146 0.510287,-0.340961 0.185331,-0.0767638 0.388161,-0.119134 0.600476,-0.119134l0.000204724 0z"/>
  <path class="fil1" d="M3.89813 4.8236l-0.969181 0 0 0.531276 0.969181 0 0 -0.531276zm-1.0421 -0.145835l1.11502 0c0.0402677,0 0.0729173,0.0326457 0.0729173,0.0729173l0 0.652937c0,0.0104173 -0.00159449,0.0206024 -0.00446063,0.0301063 -0.00253937,0.0084252 -0.00609055,0.0163071 -0.0104724,0.0234173 -0.00398819,0.00687008 -0.00905118,0.0130157 -0.0149606,0.0182126 -0.00320866,0.00309843 -0.00664173,0.0059685 -0.0102913,0.00858268 -0.0029685,0.00226772 -0.00614567,0.00433465 -0.00953543,0.00617323l-7.48031e-005 -0.000137795 -0.000248031 0.000137795 -5.11811e-005 -0.000102362c-0.012815,0.00688976 -0.0267126,0.0106969 -0.0411457,0.0106969l-1.07837 0c-0.0149685,0 -0.0292441,-0.00402362 -0.0422283,-0.0112559 -0.00702362,-0.00392913 -0.0134882,-0.00881496 -0.0192638,-0.0145 -0.00159843,-0.00144094 -0.00314961,-0.00295669 -0.0046378,-0.00455512 -0.00175197,-0.00187402 -0.00338976,-0.00381102 -0.00490551,-0.00581102 -0.00270866,-0.00329528 -0.00516535,-0.00687008 -0.00732677,-0.0107165l0.000452756 -0.000255906 -2.75591e-005 -5.90551e-005 -0.000374016 0.000208661c-0.0041378,-0.00736614 -0.00745276,-0.0159016 -0.00974803,-0.0253071 -0.00205118,-0.00848819 -0.0031811,-0.0168858 -0.0031811,-0.0248346l0 -0.652937c0,-0.0402717 0.0326496,-0.0729173 0.0729173,-0.0729173zm0.0035315 0.74039l-0.000338583 0.000188976 3.93701e-006 3.93701e-006 0.000334646 -0.000192913z"/>
  <path class="fil1" d="M3.2049 4.74929c0,0.0402677 0.0326457,0.0729173 0.0729173,0.0729173 0.0402677,0 0.0729173,-0.0326496 0.0729173,-0.0729173l0 -6.29921e-005 -0.000283465 0c7.87402e-006,-0.00792913 0.00073622,-0.671465 -0.310291,-1.18161 0.106063,-0.00966929 0.237854,-0.0143504 0.369949,-0.0143504 0.135791,0 0.270524,0.00494488 0.376709,0.0144921 -0.310941,0.510126 -0.310209,1.17353 -0.310201,1.18147l-0.000283465 0 0 6.29921e-005c0,0.0402677 0.0326496,0.0729173 0.0729173,0.0729173 0.0402717,0 0.0729173,-0.0326496 0.0729173,-0.0729173l0 -6.29921e-005 -0.000283465 0c-7.87402e-006,-0.00792126 -0.000748031,-0.711343 0.345618,-1.1914 0.00855118,-0.00979528 0.0145906,-0.022 0.0169173,-0.0357559 0.00670866,-0.0397047 -0.0200394,-0.0773425 -0.0597441,-0.0840512l-0.000188976 0.00011811c-0.119079,-0.020126 -0.317047,-0.0307047 -0.514378,-0.0307047 -0.188858,0 -0.379606,0.00968504 -0.502835,0.0299252 -0.0124882,0.00124016 -0.0248228,0.0057126 -0.0356969,0.0136417 -0.0325354,0.0237205 -0.0396811,0.0693425 -0.0159567,0.101878l0.000271654 -0.00019685c0.350091,0.480161 0.349299,1.18861 0.349291,1.19655l-0.000283465 0 0 6.29921e-005z"/>
  <path class="fil1" d="M3.03989 5.60083c-0.0402677,0 -0.0729173,0.0326457 -0.0729173,0.0729173 0,0.0402677 0.0326496,0.0729173 0.0729173,0.0729173l0.747283 0c0.0402677,0 0.0729134,-0.0326496 0.0729134,-0.0729173 0,-0.0402717 -0.0326457,-0.0729173 -0.0729134,-0.0729173l-0.747283 0z"/>
 </g>
</svg>
