<?xml version="1.0" encoding="UTF-8" standalone="no"?> <svg xmlns="http://www.w3.org/2000/svg" xmlns:xlink="http://www.w3.org/1999/xlink" viewBox="0 0 64 64"><defs><style>.cls-1{fill:url(#linear-gradient);}.cls-2{fill:url(#linear-gradient-2);}.cls-3{fill:url(#linear-gradient-3);}</style><linearGradient id="linear-gradient" x1="18" y1="32" x2="46" y2="32" gradientUnits="userSpaceOnUse"><stop offset="0" stop-color="#f62c84"/><stop offset="0.23" stop-color="#e1309c"/><stop offset="0.72" stop-color="#ab38d9"/><stop offset="1" stop-color="#8a3eff"/></linearGradient><linearGradient id="linear-gradient-2" x1="40" y1="19.77" x2="42" y2="19.77" xlink:href="#linear-gradient"/><linearGradient id="linear-gradient-3" x1="40" y1="36.08" x2="42" y2="36.08" xlink:href="#linear-gradient"/></defs><g id="Layer_7" data-name="Layer 7"><path class="cls-1" d="M42.81,11H21.19A3.19,3.19,0,0,0,18,14.19V46.71a3.19,3.19,0,0,0,3.19,3.18H22V52a1,1,0,0,0,1,1h4a1,1,0,0,0,1-1V49.89h8V52a1,1,0,0,0,1,1h4a1,1,0,0,0,1-1V49.89h.81A3.19,3.19,0,0,0,46,46.71V14.19A3.19,3.19,0,0,0,42.81,11ZM21.19,13H42.81A1.19,1.19,0,0,1,44,14.19v10.4H20V14.19A1.19,1.19,0,0,1,21.19,13ZM26,51H24V49.89h2Zm14,0H38V49.89h2Zm2.81-3.11H21.19A1.18,1.18,0,0,1,20,46.71V26.59H44V46.71A1.18,1.18,0,0,1,42.81,47.89Z"/><path class="cls-2" d="M41,21.93a1,1,0,0,0,1-1V18.6a1,1,0,0,0-2,0v2.33A1,1,0,0,0,41,21.93Z"/><path class="cls-3" d="M41,29.25a1,1,0,0,0-1,1V41.9a1,1,0,1,0,2,0V30.25A1,1,0,0,0,41,29.25Z"/></g></svg>