<?xml version="1.0" encoding="UTF-8" standalone="no"?> <svg xmlns="http://www.w3.org/2000/svg" viewBox="0 0 512 512"><title>workout, fitness, exercise, healthy, lifestyle, gym</title><g id="two_tone" data-name="two tone"><rect x="368" y="448" width="112" height="24" rx="4" ry="4" transform="translate(848 920) rotate(-180)" style="fill:#3a69ff"/><rect x="368" y="424" width="112" height="24" rx="4" ry="4" transform="translate(848 872) rotate(-180)" style="fill:#3a69ff"/><rect x="360" y="400" width="112" height="24" rx="4" ry="4" transform="translate(832 824) rotate(-180)" style="fill:#3a69ff"/><rect x="376" y="376" width="112" height="24" rx="4" ry="4" transform="translate(864 776) rotate(-180)" style="fill:#3a69ff"/><path d="M112,136c0-20.724-9.657-38.806-24-48.49V80H64c-26.51,0-48,25.072-48,56s21.49,56,48,56H88v-7.51C102.343,174.806,112,156.724,112,136Z" style="fill:#5f86fe"/><ellipse cx="88" cy="136" rx="48" ry="56" style="fill:#3a69ff"/><polygon points="202.313 152 240 264 344 264 322.32 152 202.313 152" style="fill:#e162a1"/><path d="M172,232,151.92,127.279,104,128l24.2,105.87a43.911,43.911,0,0,0,86.08-2.32l9.42-54.63a21.3,21.3,0,1,0-42.03-6.9Z" style="fill:#ffb3d0"/><path d="M202.71,152a21.3,21.3,0,0,1,20.99,24.92l-5.34,30.97h-42.6l5.91-37.87A21.293,21.293,0,0,1,202.71,152Z" style="fill:#e162a1"/><path d="M424,128,405.89,233.64a41.347,41.347,0,0,1-79.69,6.92l-11.66-32.67H358.2L368,232l16-104Z" style="fill:#ffb3d0"/><path d="M326.2,240.56a41.348,41.348,0,0,0,79.69-6.92L424,128H384L368,232l-27.57-67.82a19.549,19.549,0,0,0-36.52,13.94Z" style="fill:#ffb3d0"/><path d="M340.43,164.18l17.77,43.71H314.54l-10.63-29.77a19.55,19.55,0,0,1,36.52-13.94Z" style="fill:#e162a1"/><path d="M200.9,266.44l-44.34,2.77a40.006,40.006,0,0,0-36.91,46.78L144,456l59,16L176,320H304V264H240Z" style="fill:#ffb3d0"/><path d="M318,264v47.188A8.812,8.812,0,0,1,309.188,320H216l-15.1-53.56L240,264Z" style="fill:#3a69ff"/><path d="M292.85,267.48,262.5,273a40,40,0,0,0-32.35,45.64L252,456l58,16L288,320h26a30,30,0,0,0,30-30V264H312Z" style="fill:#ffb3d0"/><path d="M344,264v26a30,30,0,0,1-30,30h-6l-15.15-52.52L312,264Z" style="fill:#3a69ff"/><circle cx="376" cy="416" r="56" style="fill:#5f86fe"/><path d="M464,136c0-20.724-9.657-38.806-24-48.49V80H416c-26.51,0-48,25.072-48,56s21.49,56,48,56h24v-7.51C454.343,174.806,464,156.724,464,136Z" style="fill:#5f86fe"/><circle cx="376" cy="416" r="12" style="fill:#3a69ff"/><path d="M307.684,456,310,472H224a10.606,10.606,0,0,1,7.692-10.2L252,456Z" style="fill:#3a69ff"/><path d="M200.161,456,203,472H116a10.606,10.606,0,0,1,7.692-10.2L144,456Z" style="fill:#3a69ff"/><path d="M272.456,151.748V121.409l-24.228,15.658v14.681a12.113,12.113,0,0,0,2.5,7.372h0a12.114,12.114,0,0,0,19.226,0h0A12.113,12.113,0,0,0,272.456,151.748Z" style="fill:#ffb3d0"/><path d="M272.456,92.809H236.114V126.88A14.385,14.385,0,0,0,250.5,141.265h0a21.956,21.956,0,0,0,21.957-21.957Z" style="fill:#ffb3d0"/><ellipse cx="440" cy="136" rx="48" ry="56" style="fill:#3a69ff"/><path d="M440,120h12a0,0,0,0,1,0,0v32a0,0,0,0,1,0,0H440a16,16,0,0,1-16-16v0a16,16,0,0,1,16-16Z" style="fill:#3a69ff"/><ellipse cx="452" cy="136" rx="12" ry="16" style="fill:#5f86fe"/><path d="M224,85.724v9.381A13.628,13.628,0,0,0,242.585,107.8l17.757-6.934h0a18.17,18.17,0,0,0,18.171,18.171h0V98.388a18.722,18.722,0,0,0-18.722-18.721h0a18.725,18.725,0,0,0-10.136,2.981l-4.776,3.076Z" style="fill:#3a69ff"/><circle cx="269.427" cy="119.037" r="9.085" style="fill:#ffb3d0"/><path d="M142.962,152h-36.49a10.471,10.471,0,0,1-9.366-5.789h0A10.471,10.471,0,0,1,96,141.528v-3.28a10.248,10.248,0,0,1,5.958-9.307h0a10.249,10.249,0,0,1,4.29-.941H148a4,4,0,0,1,4,4h0l-4.524,4.524a5.631,5.631,0,0,0-.5,7.39h0A5.043,5.043,0,0,1,148,146.962h0A5.039,5.039,0,0,1,142.962,152Z" style="fill:#ffb3d0"/><path d="M476,140H452a4,4,0,0,1,0-8h24a4,4,0,0,1,0,8Z" style="fill:#cf4289"/><path d="M292.65,324H314a34.038,34.038,0,0,0,34-34V268.619a45.332,45.332,0,0,0,61.832-34.3l4.4-25.64a4,4,0,1,0-7.884-1.352l-4.4,25.641a37.346,37.346,0,0,1-71.979,6.25l-9.755-27.323h35.295l8.787,21.614A4,4,0,0,0,368,236a4.093,4.093,0,0,0,.468-.027,4,4,0,0,0,3.487-3.365l6.725-43.715a4,4,0,1,0-7.907-1.216l-4.522,29.4-22.115-54.4A23.453,23.453,0,0,0,323.4,148.04c-.133-.013-.262-.04-.4-.04H275.962c.022-1,.035-8,.035-8h88.131c1.792,31.224,24.365,56,51.872,56h24c28.673,0,52-26.916,52-60s-23.327-60-52-60H416c-27.507,0-50.08,24.776-51.872,56H276v-3.653a13.17,13.17,0,0,0,6.511-11.307V96.39A22.717,22.717,0,0,0,247.5,77.284l-3.792,2.436H224a4,4,0,0,0-4,4v9.39a17.6,17.6,0,0,0,12.114,16.733v17.036a18.312,18.312,0,0,0,.74,5.121H156.382a14.021,14.021,0,0,0-12.642-8H102.313a10.324,10.324,0,0,0-10.042,8H88a4,4,0,0,0,0,8h4v4.375A11.638,11.638,0,0,0,103.625,156H106.3l18,78.761A47.68,47.68,0,0,0,148.5,266.437a43.972,43.972,0,0,0-32.785,50.239l23.76,136.618-13.145,4.381A15.079,15.079,0,0,0,116,472a4,4,0,0,0,4,4h83a4,4,0,0,0,3.938-4.7L180.773,324H226.95l20.543,129.128-16.9,4.828A14.667,14.667,0,0,0,220,472a4,4,0,0,0,4,4h87a4,4,0,0,0,3.955-4.6ZM484,136c0,28.673-19.738,52-44,52s-44-23.327-44-52,19.738-52,44-52S484,107.327,484,136ZM414.019,84.059C398.482,94.447,388,113.832,388,136s10.482,41.553,26.019,51.941C390.674,186.711,372,163.888,372,136S390.674,85.289,414.019,84.059ZM340,290a26.029,26.029,0,0,1-26,26h-2.99l-13.846-48H340ZM225.817,316h-6.789L206.1,270.125,240.124,268h27.515l-5.86,1.065A44.274,44.274,0,0,0,225.817,316Zm-5.582-95.45,14.211,39.789L199.6,262.515c.772-.574,1.534-1.164,2.274-1.786a48.007,48.007,0,0,0,16.345-28.5ZM322.32,156a15.5,15.5,0,0,1,14.405,9.687l15.531,38.2H317.5v.4l-9.822-27.515a15.34,15.34,0,0,1-.664-8.048,4,4,0,0,0-7.868-1.456,23.578,23.578,0,0,0,1,12.193l22.291,62.441A45.214,45.214,0,0,0,334.451,260H242.818l-30.13-84.365a4,4,0,1,0-7.533,2.691l9.131,25.566H180.434l5.188-33.254a17.286,17.286,0,0,1,14.939-14.5A17,17,0,0,1,202.71,156h41.876a16.191,16.191,0,0,0,2.74,5.554,15.881,15.881,0,0,0,25.343,0A12.8,12.8,0,0,0,275.252,156Zm-82.206-45.446a17.665,17.665,0,0,0,3.931-1.028l13-5.076a22.174,22.174,0,0,0,3.718,7.713,4,4,0,0,0,5.6.807,5.086,5.086,0,1,1,4.5,8.943,4,4,0,0,0-2.87,3.836l0,19c0,9.752-.739,10.716-1.676,11.937a7.881,7.881,0,0,1-12.645,0A8.161,8.161,0,0,1,252,151.749v-6.544a25.811,25.811,0,0,0,6.7-1.264,4,4,0,0,0-2.527-7.59,17.922,17.922,0,0,1-5.675.914,10.4,10.4,0,0,1-10.385-10.386Zm3.886,33.5V148H201.19c-5.169,0-11.479,3.128-14.931,6.082a25.332,25.332,0,0,0-8.541,15.321l-6.129,39.281L158.38,140h79.264A18.405,18.405,0,0,0,244,144.057ZM228,93.11V87.72h16.88a4.006,4.006,0,0,0,2.162-.634l4.78-3.07a14.636,14.636,0,0,1,3.811-1.746A14.718,14.718,0,0,1,274.51,96.39v8.588a13.124,13.124,0,0,0-8.989-.436,14.1,14.1,0,0,1-1.181-5.672,4,4,0,0,0-5.455-3.726l-17.75,6.93A9.63,9.63,0,0,1,228,93.11ZM132.1,232.979,114.507,156h12.549a11.931,11.931,0,0,0,10.732-6.633l1.789-3.578a4,4,0,1,0-7.154-3.578l-1.79,3.579a3.978,3.978,0,0,1-3.577,2.21H103.625A3.629,3.629,0,0,1,100,144.375V134.313A2.315,2.315,0,0,1,102.313,132H143.74c.047,0,.092.011.138.012A3.995,3.995,0,0,0,144,140h6.234l17.838,92.755A4,4,0,0,0,172,236h.071a4,4,0,0,0,3.882-3.383l3.234-20.725h34.425l-3.272,18.977a39.911,39.911,0,0,1-78.239,2.11ZM172.062,320.7,198.227,468h-73a7.1,7.1,0,0,1,3.623-2.735L144.649,460H183.5a4,4,0,0,0,0-8H147.364L123.591,315.305a36.008,36.008,0,0,1,33.218-42.1l41.119-2.567L210.717,316H176a4,4,0,0,0-3.938,4.7ZM229.357,468a6.606,6.606,0,0,1,3.434-2.352L252.561,460H288a4,4,0,0,0,0-8H255.414l-21.12-132.753c0-.024-.006-.049-.012-.073l-.184-1.162a36.2,36.2,0,0,1,29.113-41.075l26.8-4.873L302.683,316H288a4,4,0,0,0-3.955,4.6L306.35,468Z" style="fill:#154dfc"/><path d="M440,156h12c7.727,0,14.191-6.882,15.677-16H476a4,4,0,0,0,0-8h-8.323c-1.486-9.118-7.95-16-15.677-16H440a20,20,0,0,0,0,40Zm19.514-24H452a4,4,0,0,0,0,8h7.514c-1.127,4.6-4.108,8-7.514,8-4.337,0-8-5.5-8-12s3.663-12,8-12C455.406,124,458.387,127.4,459.514,132Zm-20.307-7.96a23.9,23.9,0,0,0,0,23.92,11.985,11.985,0,0,1,0-23.92Z" style="fill:#154dfc"/><path d="M484,372H416.735a59.988,59.988,0,1,0,7.232,80H476v16H416a4,4,0,0,0,0,8h60a8.009,8.009,0,0,0,8-8V452a7.93,7.93,0,0,0-1.083-4A7.93,7.93,0,0,0,484,444V428a8.009,8.009,0,0,0-8-8V404h8a8.009,8.009,0,0,0,8-8V380A8.009,8.009,0,0,0,484,372ZM376,468a52,52,0,1,1,52-52A52.059,52.059,0,0,1,376,468Zm58.792-40H476v16H429.043A59.511,59.511,0,0,0,434.792,428ZM468,420H435.852c.087-1.324.148-2.655.148-4a60,60,0,0,0-1.208-12H468Zm16-24H432.56a59.947,59.947,0,0,0-8.593-16H484Z" style="fill:#154dfc"/><path d="M376,400a16,16,0,1,0,16,16A16.019,16.019,0,0,0,376,400Zm0,24a8,8,0,1,1,8-8A8.009,8.009,0,0,1,376,424Z" style="fill:#154dfc"/><path d="M98.756,186.432A37.679,37.679,0,0,1,88,188c-24.262,0-44-23.327-44-52S63.738,84,88,84c16.929,0,32.551,11.7,39.8,29.814a4,4,0,1,0,7.428-2.972c-8.4-20.994-26.709-34.612-46.737-34.832V76h-24c-28.673,0-52,26.916-52,60s23.327,60,52,60h24v-.009a45.67,45.67,0,0,0,12.547-1.891,4,4,0,0,0-2.281-7.668ZM20.49,136c0-27.673,18.388-50.36,41.481-51.909C46.46,94.487,36,113.854,36,136s10.46,41.513,25.971,51.909C38.878,186.36,20.49,163.673,20.49,136Z" style="fill:#154dfc"/></g></svg>