<?xml version="1.0" encoding="utf-8"?>
<!-- Generator: Adobe Illustrator 17.0.0, SVG Export Plug-In . SVG Version: 6.00 Build 0)  -->
<!DOCTYPE svg PUBLIC "-//W3C//DTD SVG 1.1//EN" "http://www.w3.org/Graphics/SVG/1.1/DTD/svg11.dtd">
<svg version="1.1" id="Calque_1" xmlns="http://www.w3.org/2000/svg" xmlns:xlink="http://www.w3.org/1999/xlink" x="0px" y="0px"
	 width="512px" height="512px" viewBox="0 0 512 512" enable-background="new 0 0 512 512" xml:space="preserve">
<g>
	<linearGradient id="SVGID_1_" gradientUnits="userSpaceOnUse" x1="85.4046" y1="96.7133" x2="481.4046" y2="498.7133">
		<stop  offset="0" style="stop-color:#6094EA"/>
		<stop  offset="1" style="stop-color:#F02FC2"/>
	</linearGradient>
	<path fill="url(#SVGID_1_)" d="M449.11,52.158h-13.015v-7.851c0-10.993-8.943-19.936-19.936-19.936h-67.924
		c-10.993,0-19.937,8.943-19.937,19.936v7.851h-18.401v-7.851c0-10.993-8.943-19.936-19.937-19.936h-67.924
		c-10.993,0-19.936,8.943-19.936,19.936v7.851h-18.403v-7.851c0-10.993-8.943-19.936-19.936-19.936H95.839
		c-10.993,0-19.936,8.943-19.936,19.936v7.851H62.89c-15.564,0-28.227,12.662-28.227,28.227v379.018
		c0,15.564,12.663,28.227,28.227,28.227h386.22c15.564,0,28.227-12.662,28.227-28.227V80.385
		C477.337,64.82,464.675,52.158,449.11,52.158z M343.3,44.307c0-2.722,2.215-4.936,4.937-4.936h67.924
		c2.722,0,4.936,2.214,4.936,4.936v7.851h-9.095v-2.493c0-4.142-3.357-7.5-7.5-7.5s-7.5,3.358-7.5,7.5v2.493h-7.302v-2.493
		c0-4.142-3.357-7.5-7.5-7.5s-7.5,3.358-7.5,7.5v2.493h-7.303v-2.493c0-4.142-3.357-7.5-7.5-7.5s-7.5,3.358-7.5,7.5v2.493H343.3
		V44.307z M217.102,44.307c0-2.722,2.214-4.936,4.936-4.936h67.924c2.722,0,4.937,2.214,4.937,4.936v7.851h-9.096v-2.493
		c0-4.142-3.357-7.5-7.5-7.5s-7.5,3.358-7.5,7.5v2.493H263.5v-2.493c0-4.142-3.357-7.5-7.5-7.5c-4.142,0-7.5,3.358-7.5,7.5v2.493
		h-7.303v-2.493c0-4.142-3.358-7.5-7.5-7.5s-7.5,3.358-7.5,7.5v2.493h-9.095V44.307z M90.903,44.307
		c0-2.722,2.214-4.936,4.936-4.936h67.924c2.722,0,4.936,2.214,4.936,4.936v7.851h-9.095v-2.493c0-4.142-3.358-7.5-7.5-7.5
		s-7.5,3.358-7.5,7.5v2.493h-7.303v-2.493c0-4.142-3.358-7.5-7.5-7.5s-7.5,3.358-7.5,7.5v2.493h-7.302v-2.493
		c0-4.142-3.358-7.5-7.5-7.5s-7.5,3.358-7.5,7.5v2.493h-9.096V44.307z M462.337,459.402c0,7.293-5.934,13.227-13.227,13.227H62.89
		c-7.293,0-13.227-5.934-13.227-13.227v-31.735h40.596l28.565,26.971c0.057,0.054,0.119,0.1,0.178,0.152
		c0.098,0.087,0.196,0.173,0.298,0.255c0.092,0.074,0.187,0.142,0.283,0.211c0.098,0.071,0.196,0.142,0.298,0.209
		c0.104,0.068,0.211,0.13,0.317,0.193c0.1,0.058,0.199,0.117,0.302,0.171c0.112,0.059,0.226,0.111,0.34,0.164
		c0.103,0.048,0.206,0.096,0.312,0.139c0.117,0.047,0.235,0.088,0.353,0.129c0.109,0.038,0.216,0.077,0.327,0.11
		c0.123,0.036,0.247,0.065,0.371,0.095c0.109,0.026,0.217,0.055,0.328,0.077c0.142,0.028,0.286,0.046,0.429,0.066
		c0.095,0.013,0.188,0.03,0.284,0.039c0.242,0.023,0.485,0.037,0.728,0.037c0,0,0,0,0.001,0s0,0,0.001,0h130.362h3.33h130.362
		c0,0,0,0,0,0s0,0,0,0c0.243,0,0.485-0.013,0.727-0.037c0.097-0.009,0.192-0.027,0.288-0.04c0.142-0.019,0.284-0.037,0.425-0.065
		c0.112-0.022,0.221-0.051,0.331-0.078c0.123-0.03,0.246-0.058,0.368-0.095c0.111-0.033,0.219-0.072,0.328-0.11
		c0.118-0.041,0.236-0.082,0.352-0.129c0.106-0.043,0.209-0.091,0.312-0.139c0.115-0.053,0.229-0.106,0.341-0.164
		c0.102-0.053,0.2-0.111,0.298-0.169c0.108-0.063,0.216-0.126,0.321-0.195c0.1-0.065,0.196-0.135,0.293-0.205
		c0.097-0.07,0.194-0.14,0.289-0.216c0.1-0.08,0.195-0.164,0.291-0.249c0.06-0.053,0.124-0.101,0.183-0.157l28.565-26.971h40.596
		V459.402z M112.108,427.667h287.784l-14.846,14.018H257.665h-3.33H126.954L112.108,427.667z M462.337,412.667H49.663V177.902
		h40.596l28.565,26.971c0.059,0.055,0.122,0.103,0.182,0.156c0.096,0.085,0.191,0.169,0.291,0.249
		c0.095,0.076,0.193,0.147,0.291,0.218c0.095,0.069,0.19,0.138,0.289,0.203c0.108,0.07,0.217,0.135,0.328,0.199
		c0.096,0.056,0.192,0.112,0.291,0.164c0.116,0.061,0.233,0.115,0.351,0.169c0.1,0.046,0.2,0.093,0.302,0.134
		c0.12,0.049,0.242,0.091,0.365,0.133c0.105,0.036,0.209,0.074,0.316,0.106c0.127,0.038,0.254,0.068,0.382,0.098
		c0.106,0.026,0.21,0.054,0.318,0.075c0.145,0.028,0.291,0.047,0.437,0.067c0.093,0.012,0.184,0.029,0.277,0.039
		c0.242,0.023,0.485,0.037,0.728,0.037c0,0,0,0,0.001,0s0,0,0.001,0h130.362h3.33h130.362c0,0,0,0,0,0s0,0,0,0
		c0.243,0,0.486-0.013,0.728-0.037c0.095-0.009,0.187-0.026,0.281-0.039c0.145-0.02,0.289-0.038,0.433-0.066
		c0.108-0.021,0.214-0.049,0.321-0.075c0.127-0.031,0.254-0.06,0.38-0.098c0.107-0.032,0.212-0.07,0.317-0.107
		c0.122-0.042,0.244-0.084,0.364-0.133c0.102-0.042,0.202-0.088,0.302-0.134c0.118-0.054,0.236-0.109,0.352-0.17
		c0.098-0.051,0.193-0.107,0.288-0.163c0.112-0.065,0.223-0.13,0.331-0.201c0.097-0.063,0.19-0.131,0.284-0.199
		c0.1-0.072,0.2-0.144,0.297-0.222c0.097-0.078,0.19-0.16,0.284-0.243c0.062-0.055,0.127-0.103,0.187-0.16l28.565-26.971h40.596
		V412.667z M112.108,177.902h287.784l-14.846,14.018H257.665h-3.33H126.954L112.108,177.902z M462.337,162.902H49.663V80.385
		c0-7.293,5.934-13.227,13.227-13.227h386.22c7.293,0,13.227,5.934,13.227,13.227V162.902z"/>
	<linearGradient id="SVGID_2_" gradientUnits="userSpaceOnUse" x1="163.3828" y1="19.8991" x2="559.3828" y2="421.899">
		<stop  offset="0" style="stop-color:#6094EA"/>
		<stop  offset="1" style="stop-color:#F02FC2"/>
	</linearGradient>
	<path fill="url(#SVGID_2_)" d="M302.398,81.029h-92.796c-4.142,0-7.5,3.358-7.5,7.5v50.782c0,4.142,3.358,7.5,7.5,7.5h92.796
		c4.143,0,7.5-3.358,7.5-7.5V88.529C309.898,84.387,306.541,81.029,302.398,81.029z M294.898,131.811h-77.796V96.029h77.796V131.811
		z"/>
	<linearGradient id="SVGID_3_" gradientUnits="userSpaceOnUse" x1="79.8527" y1="102.1824" x2="475.8527" y2="504.1824">
		<stop  offset="0" style="stop-color:#6094EA"/>
		<stop  offset="1" style="stop-color:#F02FC2"/>
	</linearGradient>
	<path fill="url(#SVGID_3_)" d="M99.075,88.285v-5.283c0-4.142-3.358-7.5-7.5-7.5s-7.5,3.358-7.5,7.5v5.283
		c-11.09,3.25-19.214,13.508-19.214,25.635s8.125,22.385,19.214,25.635v5.608c0,4.142,3.358,7.5,7.5,7.5s7.5-3.358,7.5-7.5v-5.608
		c11.089-3.25,19.214-13.508,19.214-25.635S110.165,91.535,99.075,88.285z M91.575,125.634c-6.459,0-11.714-5.255-11.714-11.714
		s5.255-11.714,11.714-11.714c6.459,0,11.714,5.255,11.714,11.714S98.034,125.634,91.575,125.634z"/>
	<linearGradient id="SVGID_4_" gradientUnits="userSpaceOnUse" x1="113.5152" y1="69.0223" x2="509.5152" y2="471.0223">
		<stop  offset="0" style="stop-color:#6094EA"/>
		<stop  offset="1" style="stop-color:#F02FC2"/>
	</linearGradient>
	<path fill="url(#SVGID_4_)" d="M165.403,88.285v-5.283c0-4.142-3.358-7.5-7.5-7.5s-7.5,3.358-7.5,7.5v5.283
		c-11.089,3.25-19.214,13.508-19.214,25.635s8.124,22.385,19.214,25.635v5.608c0,4.142,3.358,7.5,7.5,7.5s7.5-3.358,7.5-7.5v-5.608
		c11.09-3.25,19.214-13.508,19.214-25.635S176.493,91.535,165.403,88.285z M157.903,125.634c-6.459,0-11.714-5.255-11.714-11.714
		s5.255-11.714,11.714-11.714c6.459,0,11.714,5.255,11.714,11.714S164.362,125.634,157.903,125.634z"/>
	<linearGradient id="SVGID_5_" gradientUnits="userSpaceOnUse" x1="213.0872" y1="-29.0635" x2="609.0872" y2="372.9365">
		<stop  offset="0" style="stop-color:#6094EA"/>
		<stop  offset="1" style="stop-color:#F02FC2"/>
	</linearGradient>
	<path fill="url(#SVGID_5_)" d="M361.597,88.285v-5.283c0-4.142-3.357-7.5-7.5-7.5s-7.5,3.358-7.5,7.5v5.283
		c-11.09,3.25-19.214,13.508-19.214,25.635s8.124,22.385,19.214,25.635v5.608c0,4.142,3.357,7.5,7.5,7.5s7.5-3.358,7.5-7.5v-5.608
		c11.09-3.25,19.214-13.508,19.214-25.635S372.686,91.535,361.597,88.285z M354.097,125.634c-6.459,0-11.714-5.255-11.714-11.714
		s5.255-11.714,11.714-11.714s11.714,5.255,11.714,11.714S360.556,125.634,354.097,125.634z"/>
	<linearGradient id="SVGID_6_" gradientUnits="userSpaceOnUse" x1="246.7499" y1="-62.2238" x2="642.7499" y2="339.7762">
		<stop  offset="0" style="stop-color:#6094EA"/>
		<stop  offset="1" style="stop-color:#F02FC2"/>
	</linearGradient>
	<path fill="url(#SVGID_6_)" d="M427.925,88.285v-5.283c0-4.142-3.357-7.5-7.5-7.5s-7.5,3.358-7.5,7.5v5.283
		c-11.09,3.25-19.214,13.508-19.214,25.635s8.124,22.385,19.214,25.635v5.608c0,4.142,3.357,7.5,7.5,7.5s7.5-3.358,7.5-7.5v-5.608
		c11.09-3.25,19.214-13.508,19.214-25.635S439.014,91.535,427.925,88.285z M420.425,125.634c-6.459,0-11.714-5.255-11.714-11.714
		s5.255-11.714,11.714-11.714s11.714,5.255,11.714,11.714S426.884,125.634,420.425,125.634z"/>
</g>
</svg>
