<?xml version="1.0" encoding="UTF-8" standalone="no"?> <svg xmlns="http://www.w3.org/2000/svg" viewBox="0 0 64 64"><g id="Layer_35" data-name="Layer 35"><rect x="22.343" y="11.029" width="4" height="12" transform="translate(-4.912 22.201) rotate(-45)" style="fill:#9bc9ff"/><path d="M38.485,39.657a2,2,0,0,1-2.828,0L24.343,28.343a2,2,0,0,1,0-2.828l2.829-2.829L18.686,14.2a16,16,0,0,0,0,22.627l8.486,8.486a16,16,0,0,0,22.627,0l-8.485-8.486Z" style="fill:#9bc9ff"/><rect x="44.971" y="33.657" width="4" height="12" transform="translate(-14.284 44.828) rotate(-45)" style="fill:#9bc9ff"/><path d="M32,62H3a1,1,0,0,1-.692-1.722l7.939-7.618A30,30,0,1,1,32,62ZM5.486,60H32a28,28,0,1,0-19.629-8.033,1,1,0,0,1-.009,1.435Z" style="fill:#1e81ce"/><path d="M53.334,41.778,44.85,33.293a1,1,0,0,0-1.414,0L37.778,38.95a1.022,1.022,0,0,1-1.414,0L25.05,27.636a1,1,0,0,1,0-1.414l5.657-5.657a1,1,0,0,0,0-1.414l-8.485-8.485a1.029,1.029,0,0,0-1.414,0l-2.829,2.828a17,17,0,0,0,0,24.042l8.485,8.485a17,17,0,0,0,24.042,0l2.828-2.829A1,1,0,0,0,53.334,41.778ZM21.515,12.787l7.071,7.071-1.415,1.414L20.1,14.2Zm6.363,31.819-8.484-8.484a14.97,14.97,0,0,1-.673-20.472l7.036,7.037-2.121,2.121a3,3,0,0,0,0,4.242L34.949,40.363a3.071,3.071,0,0,0,4.243,0l2.122-2.121,7.036,7.036a14.97,14.97,0,0,1-20.472-.673ZM49.8,43.9l-7.071-7.07,1.415-1.415,7.07,7.071Z" style="fill:#1e81ce"/></g></svg>