<?xml version="1.0" encoding="UTF-8" standalone="no"?> <svg width="512" height="512" viewBox="0 0 512 512" fill="none" xmlns="http://www.w3.org/2000/svg">
<path d="M192 464H320V480H192V464ZM304 392C304 394.122 303.157 396.157 301.657 397.657C300.157 399.157 298.122 400 296 400H216C213.878 400 211.843 399.157 210.343 397.657C208.843 396.157 208 394.122 208 392V368H192V448H320V368H304V392ZM32 320H176V304H32V320ZM224 368V384H288V368H224ZM144 432H64V448H144V432ZM32 336H176V480H32V336ZM48 392C48 394.122 48.8429 396.157 50.3431 397.657C51.8434 399.157 53.8783 400 56 400H152C154.122 400 156.157 399.157 157.657 397.657C159.157 396.157 160 394.122 160 392V360C160 357.878 159.157 355.843 157.657 354.343C156.157 352.843 154.122 352 152 352H56C53.8783 352 51.8434 352.843 50.3431 354.343C48.8429 355.843 48 357.878 48 360V392ZM48 456C48 458.122 48.8429 460.157 50.3431 461.657C51.8434 463.157 53.8783 464 56 464H152C154.122 464 156.157 463.157 157.657 461.657C159.157 460.157 160 458.122 160 456V424C160 421.878 159.157 419.843 157.657 418.343C156.157 416.843 154.122 416 152 416H56C53.8783 416 51.8434 416.843 50.3431 418.343C48.8429 419.843 48 421.878 48 424V456ZM144 368H64V384H144V368ZM448 432H368V448H448V432ZM336 336H480V480H336V336ZM352 392C352 394.122 352.843 396.157 354.343 397.657C355.843 399.157 357.878 400 360 400H456C458.122 400 460.157 399.157 461.657 397.657C463.157 396.157 464 394.122 464 392V360C464 357.878 463.157 355.843 461.657 354.343C460.157 352.843 458.122 352 456 352H360C357.878 352 355.843 352.843 354.343 354.343C352.843 355.843 352 357.878 352 360V392ZM352 456C352 458.122 352.843 460.157 354.343 461.657C355.843 463.157 357.878 464 360 464H456C458.122 464 460.157 463.157 461.657 461.657C463.157 460.157 464 458.122 464 456V424C464 421.878 463.157 419.843 461.657 418.343C460.157 416.843 458.122 416 456 416H360C357.878 416 355.843 416.843 354.343 418.343C352.843 419.843 352 421.878 352 424V456ZM448 368H368V384H448V368ZM192 304H320V352H192V304ZM280 336C280 337.582 280.469 339.129 281.348 340.445C282.227 341.76 283.477 342.786 284.939 343.391C286.4 343.997 288.009 344.155 289.561 343.846C291.113 343.538 292.538 342.776 293.657 341.657C294.776 340.538 295.538 339.113 295.846 337.561C296.155 336.009 295.997 334.4 295.391 332.939C294.786 331.477 293.76 330.227 292.445 329.348C291.129 328.469 289.582 328 288 328C285.878 328 283.843 328.843 282.343 330.343C280.843 331.843 280 333.878 280 336ZM248 336C248 337.582 248.469 339.129 249.348 340.445C250.227 341.76 251.477 342.786 252.939 343.391C254.4 343.997 256.009 344.155 257.561 343.846C259.113 343.538 260.538 342.776 261.657 341.657C262.776 340.538 263.538 339.113 263.846 337.561C264.155 336.009 263.997 334.4 263.391 332.939C262.786 331.477 261.76 330.227 260.445 329.348C259.129 328.469 257.582 328 256 328C253.878 328 251.843 328.843 250.343 330.343C248.843 331.843 248 333.878 248 336ZM216 336C216 337.582 216.469 339.129 217.348 340.445C218.227 341.76 219.477 342.786 220.939 343.391C222.4 343.997 224.009 344.155 225.561 343.846C227.113 343.538 228.538 342.776 229.657 341.657C230.776 340.538 231.538 339.113 231.846 337.561C232.155 336.009 231.997 334.4 231.391 332.939C230.786 331.477 229.76 330.227 228.445 329.348C227.129 328.469 225.582 328 224 328C221.878 328 219.843 328.843 218.343 330.343C216.843 331.843 216 333.878 216 336ZM108.728 256L108.415 256.469C102.109 265.907 98.1582 276.72 96.893 288H128C126.734 276.72 122.783 265.908 116.478 256.469L116.165 256H108.728ZM72 288V256H48V288H72ZM136 208H32V144H136V208ZM80 168C80 165.878 79.1571 163.843 77.6569 162.343C76.1566 160.843 74.1217 160 72 160H56C53.8783 160 51.8434 160.843 50.3431 162.343C48.8429 163.843 48 165.878 48 168V184C48 186.122 48.8429 188.157 50.3431 189.657C51.8434 191.157 53.8783 192 56 192C58.1217 192 60.1566 191.157 61.6569 189.657C63.1571 188.157 64 186.122 64 184V176H72C74.1217 176 76.1566 175.157 77.6569 173.657C79.1571 172.157 80 170.122 80 168ZM224 64V112H288V64H224ZM32 32V48H416V126L392 168H456L432 126V48H480V32H32ZM184 192H328V176H184V192ZM193.08 160H318.919L292.253 128H219.747L193.08 160ZM136 128H32V64H136V128ZM80 88C80 85.8783 79.1571 83.8434 77.6569 82.3431C76.1566 80.8429 74.1217 80 72 80H56C53.8783 80 51.8434 80.8429 50.3431 82.3431C48.8429 83.8434 48 85.8783 48 88V104C48 106.122 48.8429 108.157 50.3431 109.657C51.8434 111.157 53.8783 112 56 112C58.1217 112 60.1566 111.157 61.6569 109.657C63.1571 108.157 64 106.122 64 104V96H72C74.1217 96 76.1566 95.1571 77.6569 93.6569C79.1571 92.1566 80 90.1217 80 88ZM472 264C469.878 264 467.843 264.843 466.343 266.343C464.843 267.843 464 269.878 464 272H456V256C456 249.635 453.471 243.53 448.971 239.029C444.47 234.529 438.365 232 432 232C425.635 232 419.53 234.529 415.029 239.029C410.529 243.53 408 249.635 408 256V264C408 266.122 408.843 268.157 410.343 269.657C411.843 271.157 413.878 272 416 272C418.122 272 420.157 271.157 421.657 269.657C423.157 268.157 424 266.122 424 264V256C424 253.878 424.843 251.843 426.343 250.343C427.843 248.843 429.878 248 432 248C434.122 248 436.157 248.843 437.657 250.343C439.157 251.843 440 253.878 440 256V304H336V320H480V304H456V288H464C464 290.122 464.843 292.157 466.343 293.657C467.843 295.157 469.878 296 472 296C474.122 296 476.157 295.157 477.657 293.657C479.157 292.157 480 290.122 480 288V272C480 269.878 479.157 267.843 477.657 266.343C476.157 264.843 474.122 264 472 264ZM224 240V253.1L217.121 253.278C217.013 253.285 216.905 253.289 216.796 253.293C214.784 253.365 212.881 254.224 211.495 255.685C210.11 257.146 209.353 259.092 209.387 261.105C209.421 263.118 210.243 265.037 211.677 266.45C213.111 267.864 215.043 268.658 217.056 268.662H224V273.089C224.005 277.043 225.579 280.833 228.375 283.628C231.171 286.424 234.961 287.996 238.915 288H273.085C277.039 287.996 280.831 286.423 283.627 283.627C286.423 280.831 287.996 277.039 288 273.085V268.31L295.162 268.12C295.273 268.113 295.385 268.109 295.499 268.105C297.621 268.069 299.641 267.192 301.116 265.666C302.591 264.141 303.4 262.092 303.364 259.97C303.328 257.848 302.451 255.828 300.925 254.353C299.4 252.878 297.351 252.069 295.229 252.105H288V240H224Z" fill="url(#paint0_linear_15_51702)"/>
<defs>
<linearGradient id="paint0_linear_15_51702" x1="32" y1="480" x2="480" y2="32" gradientUnits="userSpaceOnUse">
<stop stop-color="#41DFD0"/>
<stop offset="1" stop-color="#EE83EF"/>
</linearGradient>
</defs>
</svg>
