<?xml version="1.0" encoding="UTF-8" standalone="no"?> <svg width="512" height="512" viewBox="0 0 512 512" fill="none" xmlns="http://www.w3.org/2000/svg">
<path d="M80 24H432C436.243 24 440.313 25.6857 443.314 28.6863C446.314 31.6869 448 35.7565 448 40V488H64V40C64 35.7565 65.6857 31.6869 68.6863 28.6863C71.6869 25.6857 75.7565 24 80 24Z" fill="#EAE9E4"/>
<path d="M80 24H432C436.243 24 440.313 25.6857 443.314 28.6863C446.314 31.6869 448 35.7565 448 40V104H64V40C64 35.7565 65.6857 31.6869 68.6863 28.6863C71.6869 25.6857 75.7565 24 80 24Z" fill="#CDCCC8"/>
<path d="M80 24H208V104H64V40C64 35.7565 65.6857 31.6869 68.6863 28.6863C71.6869 25.6857 75.7565 24 80 24Z" fill="#DCDBD6"/>
<path d="M368 24H432C436.243 24 440.313 25.6857 443.314 28.6863C446.314 31.6869 448 35.7565 448 40V72H368V24Z" fill="#2C91FF"/>
<path d="M448 72H368V104H448V72Z" fill="#007AF6"/>
<path d="M256 424C335.529 424 400 359.529 400 280C400 200.471 335.529 136 256 136C176.471 136 112 200.471 112 280C112 359.529 176.471 424 256 424Z" fill="#CDCCC8"/>
<path d="M256 392C317.856 392 368 341.856 368 280C368 218.144 317.856 168 256 168C194.144 168 144 218.144 144 280C144 341.856 194.144 392 256 392Z" fill="#92D1F7"/>
<path d="M256 384C313.438 384 360 337.438 360 280C360 222.562 313.438 176 256 176C198.562 176 152 222.562 152 280C152 337.438 198.562 384 256 384Z" fill="#A6DEFF"/>
<path d="M368 280C368.009 290.458 366.552 300.867 363.67 310.92L336 304V256L363.67 249.08C366.552 259.134 368.009 269.542 368 280V280Z" fill="#A6DEFF"/>
<path d="M368 280C368.009 290.458 366.552 300.867 363.67 310.92L336 304V256L363.67 249.08C366.552 259.134 368.009 269.542 368 280V280Z" fill="#EAE9E4"/>
<path d="M176 104V82C176 79.3478 174.946 76.8043 173.071 74.9289C171.196 73.0536 168.652 72 166 72H106C103.348 72 100.804 73.0536 98.9289 74.9289C97.0536 76.8043 96 79.3478 96 82V104H176Z" fill="#CDCCC8"/>
<path d="M448 456H64V488H448V456Z" fill="#CDCCC8"/>
<path d="M256 80C264.837 80 272 72.8366 272 64C272 55.1634 264.837 48 256 48C247.163 48 240 55.1634 240 64C240 72.8366 247.163 80 256 80Z" fill="#EAE9E4"/>
<path d="M320 80C328.837 80 336 72.8366 336 64C336 55.1634 328.837 48 320 48C311.163 48 304 55.1634 304 64C304 72.8366 311.163 80 320 80Z" fill="#EAE9E4"/>
<path d="M56 40V488C56 490.122 56.8429 492.157 58.3431 493.657C59.8434 495.157 61.8783 496 64 496H448C450.122 496 452.157 495.157 453.657 493.657C455.157 492.157 456 490.122 456 488V40C455.993 33.637 453.462 27.5367 448.963 23.0373C444.463 18.538 438.363 16.0071 432 16H80C73.637 16.0071 67.5367 18.538 63.0373 23.0373C58.538 27.5367 56.0071 33.637 56 40V40ZM168 96H104V82C104 81.4696 104.211 80.9609 104.586 80.5858C104.961 80.2107 105.47 80 106 80H166C166.53 80 167.039 80.2107 167.414 80.5858C167.789 80.9609 168 81.4696 168 82V96ZM440 112V448H72V112H440ZM440 96H376V80H440V96ZM360 72V96H216V32H360V72ZM72 480V464H440V480H72ZM432 32C434.121 32.0024 436.154 32.846 437.654 34.3458C439.154 35.8456 439.998 37.879 440 40V64H376V32H432ZM200 32V96H184V82C183.994 77.2278 182.096 72.6527 178.722 69.2782C175.347 65.9038 170.772 64.0056 166 64H106C101.228 64.0056 96.6527 65.9038 93.2782 69.2782C89.9038 72.6527 88.0056 77.2278 88 82V96H72V40C72.0024 37.879 72.846 35.8456 74.3458 34.3458C75.8456 32.846 77.879 32.0024 80 32H200Z" fill="black"/>
<path d="M256 88C260.747 88 265.387 86.5924 269.334 83.9553C273.28 81.3181 276.357 77.5698 278.173 73.1844C279.99 68.799 280.465 63.9734 279.539 59.3178C278.613 54.6623 276.327 50.3859 272.971 47.0294C269.614 43.673 265.338 41.3872 260.682 40.4612C256.027 39.5351 251.201 40.0104 246.816 41.8269C242.43 43.6434 238.682 46.7195 236.045 50.6663C233.408 54.6131 232 59.2533 232 64C232.007 70.363 234.538 76.4634 239.037 80.9627C243.537 85.462 249.637 87.9929 256 88ZM256 56C257.582 56 259.129 56.4692 260.445 57.3483C261.76 58.2273 262.786 59.4767 263.391 60.9385C263.997 62.4004 264.155 64.0089 263.846 65.5607C263.538 67.1126 262.776 68.538 261.657 69.6569C260.538 70.7757 259.113 71.5376 257.561 71.8463C256.009 72.155 254.4 71.9965 252.939 71.391C251.477 70.7855 250.227 69.7602 249.348 68.4446C248.469 67.129 248 65.5823 248 64C248.002 61.879 248.846 59.8456 250.346 58.3458C251.846 56.846 253.879 56.0024 256 56Z" fill="black"/>
<path d="M320 88C324.747 88 329.387 86.5924 333.334 83.9553C337.28 81.3181 340.357 77.5698 342.173 73.1844C343.99 68.799 344.465 63.9734 343.539 59.3178C342.613 54.6623 340.327 50.3859 336.971 47.0294C333.614 43.673 329.338 41.3872 324.682 40.4612C320.027 39.5351 315.201 40.0104 310.816 41.8269C306.43 43.6434 302.682 46.7195 300.045 50.6663C297.408 54.6131 296 59.2533 296 64C296.007 70.363 298.538 76.4634 303.037 80.9627C307.537 85.462 313.637 87.9929 320 88ZM320 56C321.582 56 323.129 56.4692 324.445 57.3483C325.76 58.2273 326.786 59.4767 327.391 60.9385C327.997 62.4004 328.155 64.0089 327.846 65.5607C327.538 67.1126 326.776 68.538 325.657 69.6569C324.538 70.7757 323.113 71.5376 321.561 71.8463C320.009 72.155 318.4 71.9965 316.939 71.391C315.477 70.7855 314.227 69.7602 313.348 68.4446C312.469 67.129 312 65.5823 312 64C312.002 61.879 312.846 59.8456 314.346 58.3458C315.846 56.846 317.879 56.0024 320 56V56Z" fill="black"/>
<path d="M256 432C339.813 432 408 363.813 408 280C408 196.187 339.813 128 256 128C172.187 128 104 196.187 104 280C104 363.813 172.187 432 256 432ZM256 144C330.991 144 392 205.009 392 280C392 354.991 330.991 416 256 416C181.009 416 120 354.991 120 280C120 205.009 181.009 144 256 144Z" fill="black"/>
<path d="M256 400C282.136 400.08 307.57 391.55 328.372 375.728C347.113 361.481 361.294 342.081 369.181 319.9C371.078 319.623 372.811 318.672 374.063 317.221C375.315 315.77 376.003 313.917 376 312V248C376.004 246.083 375.318 244.229 374.065 242.778C372.813 241.327 371.08 240.376 369.183 240.1C361.295 217.919 347.114 198.518 328.373 184.271C313.19 172.794 295.495 165.094 276.748 161.805C258.002 158.516 238.742 159.734 220.559 165.357C202.376 170.98 185.791 180.848 172.174 194.145C158.557 207.443 148.298 223.788 142.245 241.833C136.191 259.877 134.517 279.103 137.359 297.922C140.202 316.741 147.48 334.614 158.593 350.066C169.705 365.517 184.334 378.104 201.271 386.786C218.208 395.469 236.967 399.998 256 400V400ZM360 258.246V301.754L344 297.754V262.246L360 258.246ZM256 176C278.647 175.929 300.688 183.319 318.714 197.029C334.382 208.938 346.388 225.01 353.363 243.413L334.063 248.239C332.332 248.671 330.794 249.67 329.696 251.076C328.597 252.482 328 254.215 328 256V304C328 305.784 328.597 307.517 329.695 308.923C330.793 310.33 332.329 311.328 334.06 311.761L353.36 316.587C346.386 334.99 334.38 351.062 318.712 362.971C300.686 376.68 278.647 384.071 256 384C228.418 384 201.965 373.043 182.461 353.539C162.957 334.035 152 307.583 152 280C152 252.417 162.957 225.965 182.461 206.461C201.965 186.957 228.418 176 256 176V176Z" fill="black"/>
<path d="M182.7 246.925C184.537 247.987 186.72 248.276 188.77 247.729C190.82 247.181 192.568 245.842 193.63 244.005C196.904 238.346 200.931 233.158 205.6 228.582C207.103 227.094 207.955 225.072 207.971 222.957C207.987 220.842 207.165 218.807 205.684 217.297C204.204 215.787 202.186 214.924 200.071 214.898C197.957 214.871 195.918 215.683 194.4 217.156C188.695 222.746 183.776 229.086 179.778 236C178.718 237.836 178.43 240.019 178.978 242.067C179.526 244.116 180.864 245.863 182.7 246.925V246.925Z" fill="black"/>
<path d="M256 368C267.71 368.037 279.308 365.719 290.104 361.183C300.9 356.648 310.673 349.988 318.844 341.6C319.586 340.851 320.172 339.963 320.569 338.987C320.966 338.01 321.167 336.965 321.159 335.911C321.151 334.857 320.935 333.815 320.523 332.845C320.111 331.875 319.512 330.996 318.759 330.258C318.007 329.52 317.116 328.938 316.137 328.546C315.159 328.154 314.113 327.959 313.059 327.972C312.005 327.985 310.964 328.206 309.996 328.623C309.028 329.04 308.152 329.644 307.418 330.4C297.407 340.613 284.581 347.614 270.576 350.509C256.57 353.404 242.02 352.063 228.78 346.656C215.54 341.249 204.21 332.022 196.234 320.15C188.259 308.279 184 294.301 184 280C184 277.6 184.12 275.169 184.356 272.791C184.46 271.745 184.357 270.69 184.053 269.684C183.749 268.679 183.249 267.743 182.584 266.93C181.239 265.289 179.297 264.249 177.186 264.039C176.141 263.935 175.085 264.038 174.079 264.342C173.074 264.646 172.138 265.146 171.325 265.811C169.684 267.156 168.644 269.098 168.434 271.209C168.146 274.109 168 277.069 168 280C168.026 303.331 177.306 325.699 193.804 342.196C210.301 358.694 232.669 367.973 256 368V368Z" fill="black"/>
</svg>
