<?xml version="1.0" encoding="UTF-8" standalone="no"?> <svg xmlns="http://www.w3.org/2000/svg" viewBox="0 0 64 64"><g id="evator-Lift-door-electronic"><path d="M3,3V61H16V16H48V61H61V3ZM57,41H51V31h6Z" style="fill:#78b9eb"/><path d="M61,2H3A1,1,0,0,0,2,3V61a1,1,0,0,0,1,1H61a1,1,0,0,0,1-1V3A1,1,0,0,0,61,2ZM18,60H17V17h1Zm13,0H20V17H31Zm13,0H33V17H44Zm3,0H46V17h1Zm13,0H49V16a1,1,0,0,0-1-1H16a1,1,0,0,0-1,1V60H4V4H60Z" style="fill:#006df0"/><path d="M51,42h6a1,1,0,0,0,1-1V31a1,1,0,0,0-1-1H51a1,1,0,0,0-1,1V41A1,1,0,0,0,51,42Zm1-10h4v8H52Z" style="fill:#006df0"/><rect x="19" y="10" width="2" height="2" style="fill:#006df0"/><rect x="23" y="10" width="2" height="2" style="fill:#006df0"/><rect x="27" y="10" width="2" height="2" style="fill:#006df0"/><rect x="31" y="10" width="2" height="2" style="fill:#006df0"/><rect x="35" y="10" width="2" height="2" style="fill:#006df0"/><rect x="39" y="10" width="2" height="2" style="fill:#006df0"/><rect x="43" y="10" width="2" height="2" style="fill:#006df0"/><rect x="53" y="33" width="2" height="2" style="fill:#006df0"/><rect x="53" y="37" width="2" height="2" style="fill:#006df0"/></g></svg>