<?xml version="1.0" encoding="utf-8"?>
<!-- Generator: Adobe Illustrator 17.0.0, SVG Export Plug-In . SVG Version: 6.00 Build 0)  -->
<!DOCTYPE svg PUBLIC "-//W3C//DTD SVG 1.1//EN" "http://www.w3.org/Graphics/SVG/1.1/DTD/svg11.dtd">
<svg version="1.1" id="Calque_1" xmlns="http://www.w3.org/2000/svg" xmlns:xlink="http://www.w3.org/1999/xlink" x="0px" y="0px"
	 width="512px" height="512px" viewBox="0 0 512 512" enable-background="new 0 0 512 512" xml:space="preserve">
<g>
	<linearGradient id="SVGID_1_" gradientUnits="userSpaceOnUse" x1="64.8333" y1="115.0255" x2="437.8333" y2="377.0255">
		<stop  offset="0" style="stop-color:#6094EA"/>
		<stop  offset="1" style="stop-color:#F02FC2"/>
	</linearGradient>
	<path fill="url(#SVGID_1_)" d="M478.514,94.431H33.487c-10.752,0-19.5,8.748-19.5,19.5v255.61c0,10.752,8.748,19.5,19.5,19.5h7.787
		v21.028c0,4.143,3.358,7.5,7.5,7.5h105.333c4.142,0,7.5-3.357,7.5-7.5v-21.028h188.786v21.028c0,4.143,3.357,7.5,7.5,7.5h105.333
		c4.143,0,7.5-3.357,7.5-7.5v-21.028h7.787c10.751,0,19.499-8.747,19.501-19.5v-255.61
		C498.014,103.179,489.266,94.431,478.514,94.431z M146.607,402.569H56.274v-13.528h90.333V402.569z M455.726,402.569h-90.333
		v-13.528h90.333V402.569z M483.013,369.541c0,2.481-2.019,4.5-4.5,4.5H33.487c-2.481,0-4.5-2.019-4.5-4.5v-255.61
		c0-2.481,2.019-4.5,4.5-4.5h445.027c2.481,0,4.5,2.019,4.5,4.5L483.013,369.541z"/>
	<linearGradient id="SVGID_2_" gradientUnits="userSpaceOnUse" x1="45.5426" y1="142.489" x2="418.5426" y2="404.489">
		<stop  offset="0" style="stop-color:#6094EA"/>
		<stop  offset="1" style="stop-color:#F02FC2"/>
	</linearGradient>
	<path fill="url(#SVGID_2_)" d="M313.368,121.847H60.306c-10.752,0-19.5,8.748-19.5,19.5v200.778c0,10.752,8.748,19.5,19.5,19.5
		h253.062c10.752,0,19.5-8.748,19.5-19.5V141.347C332.868,130.595,324.12,121.847,313.368,121.847z M317.868,305.511l-16.035-12.745
		v-51.031v-1.683v-51.031l16.035-12.744V305.511z M317.868,157.116l-28.202,22.415c-1.79,1.423-2.833,3.585-2.833,5.872v54.65v1.683
		v54.65c0,2.287,1.043,4.448,2.833,5.871l28.202,22.415v17.453c0,2.481-2.019,4.5-4.5,4.5H60.306c-2.481,0-4.5-2.019-4.5-4.5
		V141.347c0-2.481,2.019-4.5,4.5-4.5h253.062c2.481,0,4.5,2.019,4.5,4.5V157.116z"/>
	<linearGradient id="SVGID_3_" gradientUnits="userSpaceOnUse" x1="56.5522" y1="126.8149" x2="429.5522" y2="388.8149">
		<stop  offset="0" style="stop-color:#6094EA"/>
		<stop  offset="1" style="stop-color:#F02FC2"/>
	</linearGradient>
	<path fill="url(#SVGID_3_)" d="M363.157,322.731c-10.724,0-19.447,8.724-19.447,19.446c0,10.724,8.724,19.447,19.447,19.447
		s19.447-8.724,19.447-19.447C382.604,331.455,373.881,322.731,363.157,322.731z M363.157,346.625c-2.452,0-4.447-1.995-4.447-4.447
		s1.995-4.446,4.447-4.446s4.447,1.994,4.447,4.446S365.609,346.625,363.157,346.625z"/>
	<linearGradient id="SVGID_4_" gradientUnits="userSpaceOnUse" x1="71.1864" y1="105.9808" x2="444.1864" y2="367.9808">
		<stop  offset="0" style="stop-color:#6094EA"/>
		<stop  offset="1" style="stop-color:#F02FC2"/>
	</linearGradient>
	<path fill="url(#SVGID_4_)" d="M407.452,322.731c-10.724,0-19.447,8.724-19.447,19.446c0,10.724,8.724,19.447,19.447,19.447
		s19.447-8.724,19.447-19.447C426.899,331.455,418.176,322.731,407.452,322.731z M407.452,346.625c-2.452,0-4.447-1.995-4.447-4.447
		s1.995-4.446,4.447-4.446s4.447,1.994,4.447,4.446S409.904,346.625,407.452,346.625z"/>
	<linearGradient id="SVGID_5_" gradientUnits="userSpaceOnUse" x1="85.8205" y1="85.1467" x2="458.8205" y2="347.1467">
		<stop  offset="0" style="stop-color:#6094EA"/>
		<stop  offset="1" style="stop-color:#F02FC2"/>
	</linearGradient>
	<path fill="url(#SVGID_5_)" d="M451.747,322.731c-10.724,0-19.447,8.724-19.447,19.446c0,10.724,8.724,19.447,19.447,19.447
		s19.447-8.724,19.447-19.447C471.194,331.455,462.471,322.731,451.747,322.731z M451.747,346.625c-2.452,0-4.447-1.995-4.447-4.447
		s1.995-4.446,4.447-4.446s4.447,1.994,4.447,4.446S454.199,346.625,451.747,346.625z"/>
	<linearGradient id="SVGID_6_" gradientUnits="userSpaceOnUse" x1="77.76" y1="96.6222" x2="450.76" y2="358.6222">
		<stop  offset="0" style="stop-color:#6094EA"/>
		<stop  offset="1" style="stop-color:#F02FC2"/>
	</linearGradient>
	<path fill="url(#SVGID_6_)" d="M363.157,277.642c-10.724,0-19.447,8.724-19.447,19.447s8.724,19.447,19.447,19.447
		s19.447-8.724,19.447-19.447S373.881,277.642,363.157,277.642z M363.157,301.536c-2.452,0-4.447-1.995-4.447-4.447
		s1.995-4.447,4.447-4.447s4.447,1.995,4.447,4.447S365.609,301.536,363.157,301.536z"/>
	<linearGradient id="SVGID_7_" gradientUnits="userSpaceOnUse" x1="92.3941" y1="75.7881" x2="465.3941" y2="337.7881">
		<stop  offset="0" style="stop-color:#6094EA"/>
		<stop  offset="1" style="stop-color:#F02FC2"/>
	</linearGradient>
	<path fill="url(#SVGID_7_)" d="M407.452,277.642c-10.724,0-19.447,8.724-19.447,19.447s8.724,19.447,19.447,19.447
		s19.447-8.724,19.447-19.447S418.176,277.642,407.452,277.642z M407.452,301.536c-2.452,0-4.447-1.995-4.447-4.447
		s1.995-4.447,4.447-4.447s4.447,1.995,4.447,4.447S409.904,301.536,407.452,301.536z"/>
	<linearGradient id="SVGID_8_" gradientUnits="userSpaceOnUse" x1="107.0283" y1="54.954" x2="480.0283" y2="316.954">
		<stop  offset="0" style="stop-color:#6094EA"/>
		<stop  offset="1" style="stop-color:#F02FC2"/>
	</linearGradient>
	<path fill="url(#SVGID_8_)" d="M451.747,277.642c-10.724,0-19.447,8.724-19.447,19.447s8.724,19.447,19.447,19.447
		s19.447-8.724,19.447-19.447S462.471,277.642,451.747,277.642z M451.747,301.536c-2.452,0-4.447-1.995-4.447-4.447
		s1.995-4.447,4.447-4.447s4.447,1.995,4.447,4.447S454.199,301.536,451.747,301.536z"/>
	<linearGradient id="SVGID_9_" gradientUnits="userSpaceOnUse" x1="98.9674" y1="66.4299" x2="471.9674" y2="328.4299">
		<stop  offset="0" style="stop-color:#6094EA"/>
		<stop  offset="1" style="stop-color:#F02FC2"/>
	</linearGradient>
	<path fill="url(#SVGID_9_)" d="M363.157,232.553c-10.724,0-19.447,8.724-19.447,19.447c0,10.724,8.724,19.447,19.447,19.447
		s19.447-8.724,19.447-19.447C382.604,241.277,373.881,232.553,363.157,232.553z M363.157,256.447c-2.452,0-4.447-1.995-4.447-4.447
		s1.995-4.447,4.447-4.447s4.447,1.995,4.447,4.447S365.609,256.447,363.157,256.447z"/>
	<linearGradient id="SVGID_10_" gradientUnits="userSpaceOnUse" x1="113.6016" y1="45.5958" x2="486.6016" y2="307.5958">
		<stop  offset="0" style="stop-color:#6094EA"/>
		<stop  offset="1" style="stop-color:#F02FC2"/>
	</linearGradient>
	<path fill="url(#SVGID_10_)" d="M407.452,232.553c-10.724,0-19.447,8.724-19.447,19.447c0,10.724,8.724,19.447,19.447,19.447
		s19.447-8.724,19.447-19.447C426.899,241.277,418.176,232.553,407.452,232.553z M407.452,256.447c-2.452,0-4.447-1.995-4.447-4.447
		s1.995-4.447,4.447-4.447s4.447,1.995,4.447,4.447S409.904,256.447,407.452,256.447z"/>
	<linearGradient id="SVGID_11_" gradientUnits="userSpaceOnUse" x1="128.2357" y1="24.7617" x2="501.2357" y2="286.7617">
		<stop  offset="0" style="stop-color:#6094EA"/>
		<stop  offset="1" style="stop-color:#F02FC2"/>
	</linearGradient>
	<path fill="url(#SVGID_11_)" d="M451.747,232.553c-10.724,0-19.447,8.724-19.447,19.447c0,10.724,8.724,19.447,19.447,19.447
		s19.447-8.724,19.447-19.447C471.194,241.277,462.471,232.553,451.747,232.553z M451.747,256.447c-2.452,0-4.447-1.995-4.447-4.447
		s1.995-4.447,4.447-4.447s4.447,1.995,4.447,4.447S454.199,256.447,451.747,256.447z"/>
	<linearGradient id="SVGID_12_" gradientUnits="userSpaceOnUse" x1="164.5366" y1="-26.9185" x2="537.5366" y2="235.0815">
		<stop  offset="0" style="stop-color:#6094EA"/>
		<stop  offset="1" style="stop-color:#F02FC2"/>
	</linearGradient>
	<path fill="url(#SVGID_12_)" d="M463.694,121.847H351.21c-4.143,0-7.5,3.358-7.5,7.5v28.723c0,4.142,3.357,7.5,7.5,7.5h112.484
		c4.143,0,7.5-3.358,7.5-7.5v-28.723C471.194,125.205,467.837,121.847,463.694,121.847z M456.194,150.57H358.71v-13.723h97.484
		V150.57z"/>
	<linearGradient id="SVGID_13_" gradientUnits="userSpaceOnUse" x1="140.0784" y1="7.9017" x2="513.0784" y2="269.9017">
		<stop  offset="0" style="stop-color:#6094EA"/>
		<stop  offset="1" style="stop-color:#F02FC2"/>
	</linearGradient>
	<path fill="url(#SVGID_13_)" d="M463.694,173.847H351.21c-4.143,0-7.5,3.358-7.5,7.5v28.723c0,4.142,3.357,7.5,7.5,7.5h112.484
		c4.143,0,7.5-3.358,7.5-7.5v-28.723C471.194,177.205,467.837,173.847,463.694,173.847z M456.194,202.57H358.71v-13.723h97.484
		V202.57z"/>
</g>
</svg>
