<?xml version="1.0" encoding="UTF-8" standalone="no"?> <svg xmlns="http://www.w3.org/2000/svg" xmlns:xlink="http://www.w3.org/1999/xlink" viewBox="0 0 64 64"><defs><linearGradient id="linear-gradient" x1="12.212" y1="51.783" x2="51.788" y2="12.208" gradientUnits="userSpaceOnUse"><stop offset="0" stop-color="#41dfd0"/><stop offset="1" stop-color="#ee83ef"/></linearGradient></defs><g id="solid_gradient" data-name="solid gradient"><path d="M37.125,39.292a1,1,0,1,1-1-1A1,1,0,0,1,37.125,39.292ZM32,35v2a1,1,0,0,1-.293.707L30.414,39h2.741a2.983,2.983,0,0,1,5.94,0h.059l.782-2.894L39.382,35Zm-7.166-4.766L21.539,33H30V30H25.478A1.008,1.008,0,0,0,24.834,30.234Zm9.56.008A.989.989,0,0,0,33.741,30H32v3h5.419Zm-17.769,8.05a1,1,0,1,0,1,1A1,1,0,0,0,16.625,38.292ZM15,35a3,3,0,0,0-3,3v1h1.655a2.983,2.983,0,0,1,5.94,0H21V35H15Zm8,4h4.586L30,36.586V35H23ZM50.533,22.861a15.353,15.353,0,0,1-4.846,7.265L45,30.7l-.687-.572a15.353,15.353,0,0,1-4.846-7.265,5.887,5.887,0,1,1,11.066,0ZM48,20a3,3,0,0,0-6,0v5h2V22.816A2.966,2.966,0,0,0,45,23,3,3,0,0,0,48,20Zm-3-1a1,1,0,1,0,1,1A1,1,0,0,0,45,19ZM32,60A27.981,27.981,0,0,0,54.958,48H9.042A27.981,27.981,0,0,0,32,60ZM60,32a27.815,27.815,0,0,1-3.767,14H7.767A27.994,27.994,0,1,1,60,32ZM17.257,18.98l1.486,1.338a9.965,9.965,0,0,1,14.848,0l1.486-1.338a11.963,11.963,0,0,0-17.82,0Zm13.1,3.735,1.4-1.43a7.975,7.975,0,0,0-11.527.368l1.486,1.338a5.974,5.974,0,0,1,8.642-.276ZM26.167,23A4,4,0,0,0,23.2,24.331l1.486,1.338a2.013,2.013,0,0,1,2.958,0l1.486-1.338A4,4,0,0,0,26.167,23ZM41.9,35.553l-1-2c-.006-.01-.014-.018-.019-.028a1.124,1.124,0,0,0-.07-.1.973.973,0,0,0-.106-.132c-.01-.01-.016-.023-.026-.032l-4.943-4.506A2.994,2.994,0,0,0,33.741,28H25.478a3.005,3.005,0,0,0-1.928.7L18.428,33H15a5.006,5.006,0,0,0-5,5v2a1,1,0,0,0,1,1h3.164a2.99,2.99,0,0,0,4.922,0H33.664a2.99,2.99,0,0,0,4.922,0H39.92a1,1,0,0,0,.965-.739l1.08-4A1,1,0,0,0,41.9,35.553ZM46,40H44v2h2Zm0-4H44v2h2Zm4.155-21.118a7.886,7.886,0,0,0-12.6,8.571,17.347,17.347,0,0,0,5.476,8.21l.967.806V34h2V32.469l.967-.806a17.347,17.347,0,0,0,5.476-8.21A8.022,8.022,0,0,0,50.155,14.882Z" style="fill:url(#linear-gradient)"/></g></svg>