<?xml version="1.0" encoding="utf-8"?>
<!-- Generator: Adobe Illustrator 18.0.0, SVG Export Plug-In . SVG Version: 6.00 Build 0)  -->
<!DOCTYPE svg PUBLIC "-//W3C//DTD SVG 1.1//EN" "http://www.w3.org/Graphics/SVG/1.1/DTD/svg11.dtd">
<svg version="1.1" id="Layer_1" xmlns="http://www.w3.org/2000/svg" xmlns:xlink="http://www.w3.org/1999/xlink" x="0px" y="0px"
	 viewBox="0 0 64 64" enable-background="new 0 0 64 64" xml:space="preserve">
<g>
	<g>
		<g>
			<path fill="#58B8DD" d="M32,0c17.7,0,32,14.3,32,32S49.7,64,32,64S0,49.7,0,32S14.3,0,32,0z"/>
		</g>
	</g>
</g>
<g>
	<g>
		<g>
			<g>
				<path fill="#D3D3D3" d="M36,19h-2v-1c0-1.1-0.9-2-2-2s-2,0.9-2,2v1h-2v-1c0-2.2,1.8-4,4-4s4,1.8,4,4V19z"/>
			</g>
		</g>
	</g>
</g>
<g>
	<g>
		<g>
			<path fill="#EBECED" d="M54,40c0-12.4-10.1-22.5-22.5-22.5S9,27.6,9,40H54z"/>
		</g>
	</g>
</g>
<g>
	<g>
		<g>
			<path fill="#D3D3D3" d="M53,45H11c-2.8,0-5-2.2-5-5v0h52v0C58,42.8,55.8,45,53,45z"/>
		</g>
	</g>
</g>
<g>
	<g>
		<g>
			<path fill="#FFFFFF" d="M33,21c1.6-0.3,13.9,3.2,16.7,15.8l-6.3,0.1C41.4,27.7,33,21,33,21z"/>
		</g>
	</g>
</g>
</svg>
