<?xml version="1.0" encoding="UTF-8" standalone="no"?> <svg width="64" height="64" viewBox="0 0 64 64" fill="none" xmlns="http://www.w3.org/2000/svg">
<path d="M51.0199 10.8201L31.9999 3.87012L12.8499 10.9301L5.87988 21.3901L13.3999 25.9301L19.7599 21.6901L35.5199 20.8201L48.0299 23.0601L51.3699 26.2601L58.5599 20.8201L51.0199 10.8201Z" fill="#78B9EB"/>
<path d="M33.0301 24.0701L20.9401 25.4801L13.8801 28.8601L13.5601 31.7401L15.8701 33.1301L20.5001 33.0701L31.0201 32.5101L44.2401 33.5601L49.1801 32.9101L50.6001 29.2401L42.9101 25.4801L33.0301 24.0701Z" fill="#78B9EB"/>
<path d="M51.3901 30.1701V26.9101L58.7901 21.9101C58.9009 21.8339 58.9952 21.7362 59.0673 21.6228C59.1395 21.5094 59.188 21.3826 59.2101 21.2501C59.234 21.1184 59.2313 20.9834 59.2021 20.8528C59.1729 20.7223 59.1178 20.5989 59.0401 20.4901L52.0001 10.6401C51.8846 10.4806 51.7245 10.3589 51.5401 10.2901L32.3501 3.06005C32.1236 2.97998 31.8766 2.97998 31.6501 3.06005L12.5001 10.2901C12.3157 10.3589 12.1556 10.4806 12.0401 10.6401L5.0001 20.5101C4.92238 20.6189 4.86728 20.7423 4.83808 20.8728C4.80888 21.0034 4.80617 21.1384 4.8301 21.2701C4.85216 21.4026 4.90072 21.5294 4.97289 21.6428C5.04505 21.7562 5.13933 21.8539 5.2501 21.9301L12.6501 26.9301V30.1901C12.6145 30.7666 12.7043 31.3441 12.9132 31.8827C13.122 32.4213 13.4451 32.9082 13.8601 33.3101C14.1981 33.6033 14.5836 33.8366 15.0001 34.0001C14.9001 34.3401 14.8101 34.7101 14.7401 35.0801C13.6909 35.5475 12.8071 36.3206 12.2041 37.2982C11.6011 38.2759 11.3069 39.4126 11.3601 40.5601C11.3601 43.4101 13.1401 45.8001 15.4701 46.2401C18.1601 55.0001 24.8601 61 32.0001 61C39.1401 61 45.8401 55 48.4901 46.25C50.8201 45.81 52.6001 43.42 52.6001 40.57C52.6585 39.3908 52.3506 38.2224 51.7186 37.2252C51.0865 36.2279 50.1614 35.4506 49.0701 35C48.9801 34.68 48.8701 34.3701 48.7601 34.0701C49.283 33.8934 49.7657 33.6147 50.1801 33.2501C50.5899 32.8527 50.9098 32.3723 51.1185 31.841C51.3272 31.3098 51.4198 30.74 51.3901 30.1701ZM14.6101 26.3801C14.6101 24.4701 21.3801 21.6901 32.0001 21.6901C42.6201 21.6901 49.3901 24.4701 49.3901 26.3801V27.0001C46.0501 24.6901 39.0001 23.4801 32.0001 23.4801C25.0001 23.4801 18.0001 24.6901 14.6101 27.0001V26.3801ZM7.1801 20.8401L13.4901 12.0601L32.0001 5.07005L50.5101 12.0701L56.8201 20.8501L50.9301 24.8501C48.9301 21.4801 40.4101 19.7301 32.0001 19.7301C23.5901 19.7301 15.0901 21.4801 13.0701 24.8501L7.1801 20.8401ZM47.2701 36.0801C47.3138 36.2758 47.4153 36.454 47.5616 36.5913C47.7078 36.7286 47.892 36.8188 48.0901 36.85C49.5201 37.09 50.6001 38.68 50.6001 40.57C50.6001 42.63 49.3101 44.3201 47.7101 44.3301C47.4857 44.3218 47.2649 44.3893 47.0835 44.5217C46.9021 44.6541 46.7706 44.8437 46.7101 45.0601C44.4901 53.2701 38.4201 59 32.0001 59C25.5801 59 19.5101 53.2701 17.2401 45.0601C17.1818 44.8521 17.0578 44.6686 16.8865 44.537C16.7153 44.4054 16.506 44.3328 16.2901 44.3301C14.6901 44.3301 13.4001 42.63 13.4001 40.57C13.4001 38.73 14.4001 37.15 15.8301 36.87C16.0361 36.8324 16.225 36.7312 16.3703 36.5804C16.5157 36.4297 16.61 36.2372 16.6401 36.03C16.7239 35.4925 16.8442 34.9613 17.0001 34.4401C19.2155 34.53 21.4346 34.4195 23.6301 34.1101C26.4086 33.7808 29.2024 33.5972 32.0001 33.5601C34.7945 33.5975 37.5849 33.7811 40.3601 34.1101C42.3601 34.3201 44.2101 34.51 45.7301 34.51C46.0801 34.51 46.4101 34.51 46.7301 34.51C46.9598 35.0149 47.1406 35.5407 47.2701 36.0801V36.0801ZM48.8401 31.8101C47.6801 32.8601 44.3801 32.5201 40.5701 32.1201C37.725 31.7862 34.8645 31.5993 32.0001 31.5601C29.1357 31.5993 26.2752 31.7862 23.4301 32.1201C19.6201 32.5201 16.3301 32.8601 15.1601 31.8101C14.9515 31.5953 14.7938 31.3364 14.6986 31.0526C14.6034 30.7687 14.5732 30.4671 14.6101 30.1701C14.6101 28.2601 21.3801 25.4801 32.0001 25.4801C42.6201 25.4801 49.3901 28.2601 49.3901 30.1701C49.427 30.4671 49.3968 30.7687 49.3016 31.0526C49.2064 31.3364 49.0487 31.5953 48.8401 31.8101Z" fill="#006DF0"/>
<path d="M25.6303 48C25.5365 48.093 25.4621 48.2036 25.4114 48.3254C25.3606 48.4473 25.3345 48.578 25.3345 48.71C25.3345 48.842 25.3606 48.9727 25.4114 49.0946C25.4621 49.2164 25.5365 49.327 25.6303 49.42C25.8176 49.6062 26.0711 49.7108 26.3353 49.7108C26.5995 49.7108 26.8529 49.6062 27.0403 49.42C27.6907 48.7669 28.4636 48.2487 29.3148 47.8951C30.166 47.5415 31.0786 47.3595 32.0003 47.3595C32.922 47.3595 33.8346 47.5415 34.6858 47.8951C35.5369 48.2487 36.3099 48.7669 36.9603 49.42C37.0535 49.5126 37.1641 49.5859 37.2856 49.6357C37.4072 49.6856 37.5374 49.711 37.6688 49.7105C37.8002 49.7101 37.9302 49.6837 38.0514 49.633C38.1726 49.5823 38.2827 49.5082 38.3753 49.415C38.4679 49.3218 38.5412 49.2112 38.591 49.0896C38.6409 48.9681 38.6663 48.8379 38.6658 48.7065C38.6654 48.5751 38.639 48.445 38.5883 48.3238C38.5376 48.2026 38.4635 48.0926 38.3703 48C37.5343 47.1625 36.5414 46.498 35.4484 46.0446C34.3553 45.5913 33.1836 45.3579 32.0003 45.3579C30.8169 45.3579 29.6452 45.5913 28.5522 46.0446C27.4591 46.498 26.4662 47.1625 25.6303 48V48Z" fill="#006DF0"/>
<path d="M33.7802 50H30.2202C29.955 50 29.7006 50.1054 29.5131 50.2929C29.3256 50.4804 29.2202 50.7348 29.2202 51C29.2202 51.2652 29.3256 51.5196 29.5131 51.7071C29.7006 51.8946 29.955 52 30.2202 52H33.7802C34.0454 52 34.2998 51.8946 34.4873 51.7071C34.6749 51.5196 34.7802 51.2652 34.7802 51C34.7802 50.7348 34.6749 50.4804 34.4873 50.2929C34.2998 50.1054 34.0454 50 33.7802 50Z" fill="#006DF0"/>
<path d="M23.7603 37.27H22.5903C22.3251 37.27 22.0708 37.3754 21.8832 37.5629C21.6957 37.7504 21.5903 38.0048 21.5903 38.27C21.5903 38.5352 21.6957 38.7896 21.8832 38.9771C22.0708 39.1647 22.3251 39.27 22.5903 39.27H23.7603C24.0255 39.27 24.2799 39.1647 24.4674 38.9771C24.655 38.7896 24.7603 38.5352 24.7603 38.27C24.7603 38.0048 24.655 37.7504 24.4674 37.5629C24.2799 37.3754 24.0255 37.27 23.7603 37.27V37.27Z" fill="#006DF0"/>
<path d="M41.4102 37.27H40.2402C39.975 37.27 39.7207 37.3754 39.5331 37.5629C39.3456 37.7504 39.2402 38.0048 39.2402 38.27C39.2402 38.5352 39.3456 38.7896 39.5331 38.9771C39.7207 39.1647 39.975 39.27 40.2402 39.27H41.4102C41.6754 39.27 41.9298 39.1647 42.1173 38.9771C42.3049 38.7896 42.4102 38.5352 42.4102 38.27C42.4102 38.0048 42.3049 37.7504 42.1173 37.5629C41.9298 37.3754 41.6754 37.27 41.4102 37.27V37.27Z" fill="#006DF0"/>
<path d="M28.1802 14.0001H29.5902L28.5902 15.0001C28.4964 15.0931 28.4221 15.2037 28.3713 15.3256C28.3205 15.4474 28.2944 15.5781 28.2944 15.7101C28.2944 15.8421 28.3205 15.9729 28.3713 16.0947C28.4221 16.2166 28.4964 16.3272 28.5902 16.4201C28.6836 16.5128 28.7944 16.5861 28.9163 16.6359C29.0381 16.6857 29.1686 16.7109 29.3002 16.7101C29.4318 16.7109 29.5622 16.6857 29.6841 16.6359C29.8059 16.5861 29.9167 16.5128 30.0102 16.4201L31.0102 15.4201V16.8301C31.0102 17.0954 31.1155 17.3497 31.3031 17.5372C31.4906 17.7248 31.745 17.8301 32.0102 17.8301C32.2754 17.8301 32.5297 17.7248 32.7173 17.5372C32.9048 17.3497 33.0102 17.0954 33.0102 16.8301V15.3701L34.0102 16.3701C34.1036 16.4628 34.2144 16.5361 34.3363 16.5859C34.4581 16.6357 34.5886 16.6609 34.7202 16.6601C34.8518 16.6609 34.9822 16.6357 35.1041 16.5859C35.2259 16.5361 35.3367 16.4628 35.4302 16.3701C35.5239 16.2772 35.5983 16.1666 35.6491 16.0447C35.6998 15.9229 35.726 15.7921 35.726 15.6601C35.726 15.5281 35.6998 15.3974 35.6491 15.2756C35.5983 15.1537 35.5239 15.0431 35.4302 14.9501L34.4302 13.9501H35.8402C36.1054 13.9501 36.3597 13.8448 36.5473 13.6572C36.7348 13.4697 36.8402 13.2154 36.8402 12.9501C36.8402 12.6849 36.7348 12.4306 36.5473 12.243C36.3597 12.0555 36.1054 11.9501 35.8402 11.9501H34.4102L35.4102 10.9501C35.5964 10.7628 35.701 10.5093 35.701 10.2451C35.701 9.98095 35.5964 9.7275 35.4102 9.54014C35.3172 9.44641 35.2066 9.37201 35.0848 9.32125C34.9629 9.27048 34.8322 9.24434 34.7002 9.24434C34.5682 9.24434 34.4375 9.27048 34.3156 9.32125C34.1937 9.37201 34.0831 9.44641 33.9902 9.54014L32.9902 10.5401V9.14014C32.9902 8.87492 32.8848 8.62057 32.6973 8.43303C32.5097 8.24549 32.2554 8.14014 31.9902 8.14014C31.725 8.14014 31.4706 8.24549 31.2831 8.43303C31.0955 8.62057 30.9902 8.87492 30.9902 9.14014V10.5401L29.9902 9.54014C29.8972 9.44641 29.7866 9.37201 29.6648 9.32125C29.5429 9.27048 29.4122 9.24434 29.2802 9.24434C29.1482 9.24434 29.0175 9.27048 28.8956 9.32125C28.7737 9.37201 28.6631 9.44641 28.5702 9.54014C28.3839 9.7275 28.2794 9.98095 28.2794 10.2451C28.2794 10.5093 28.3839 10.7628 28.5702 10.9501L29.5702 11.9501H28.1802C27.915 11.9501 27.6606 12.0555 27.4731 12.243C27.2855 12.4306 27.1802 12.6849 27.1802 12.9501C27.1802 13.2154 27.2855 13.4697 27.4731 13.6572C27.6606 13.8448 27.915 13.9501 28.1802 13.9501V14.0001Z" fill="#006DF0"/>
</svg>
